<?xml version="1.0" encoding="UTF-8"?>
<svg version="1.1" xmlns="http://www.w3.org/2000/svg" width="350" height="350">
<path d="M0 0 C1.19065225 -0.00445668 1.19065225 -0.00445668 2.40535808 -0.0090034 C5.07996196 -0.01771349 7.75452121 -0.0192006 10.42913818 -0.02069092 C12.3408569 -0.0253175 14.25257468 -0.03034195 16.16429138 -0.03573608 C21.36895493 -0.04887852 26.57360556 -0.05530877 31.77828312 -0.05974674 C35.02836596 -0.06267484 38.27844525 -0.06677917 41.52852631 -0.07125092 C51.69253691 -0.08493146 61.85653942 -0.09459507 72.0205586 -0.09845281 C83.76191456 -0.10293337 95.50315409 -0.12047887 107.24447465 -0.1494534 C116.31375056 -0.17105861 125.38299369 -0.18115649 134.45229506 -0.18249393 C139.87172779 -0.1835429 145.29105116 -0.18947019 150.71045685 -0.20731354 C155.80921974 -0.22377384 160.90779085 -0.22595961 166.00657082 -0.21717453 C167.87784908 -0.21640303 169.74913756 -0.22076173 171.62038994 -0.23063278 C174.17578524 -0.24332185 176.73049819 -0.23749213 179.28588867 -0.22705078 C180.0257823 -0.23510719 180.76567593 -0.24316359 181.52799058 -0.25146413 C186.21332565 -0.20671522 189.40914946 0.6835026 193.39691162 3.14044189 C194.7822876 4.93788147 194.7822876 4.93788147 195.85980225 6.78033447 C197.98159479 9.38339935 199.05677843 10.06942138 202.39178467 10.76577759 C206.26815112 10.98113497 210.11221605 10.97830348 213.99066162 10.90216064 C215.42503107 10.90138748 216.85940674 10.90427988 218.29376221 10.91065979 C222.0599475 10.92022932 225.82474936 10.89168065 229.59069824 10.85150146 C235.61697526 10.78993886 241.64289662 10.77031536 247.66944885 10.78132057 C249.7671513 10.77723085 251.86332835 10.74698069 253.96075439 10.71434021 C255.88304871 10.71002739 255.88304871 10.71002739 257.84417725 10.70562744 C259.52912292 10.68728096 259.52912292 10.68728096 261.24810791 10.66856384 C265.92065626 11.36878946 269.02022075 13.66880682 272.20941162 17.07794189 C274.72157569 21.44117423 274.48244012 26.02657276 274.39691162 30.94512939 C274.39888772 32.9469207 274.40091774 34.94871282 274.4052124 36.95050049 C274.39969241 38.32367984 274.37990406 39.69687816 274.34564209 41.06964111 C273.93327315 49.3591725 273.93327315 49.3591725 277.39691162 56.50469971 C279.77022052 58.36218714 279.77022052 58.36218714 282.26800537 59.75030518 C284.80108374 61.40435887 285.30008977 62.34519301 286.39691162 65.14044189 C288.54203048 79.81511764 287.54456606 95.13065015 287.53123713 109.93305707 C287.5286714 113.6829264 287.53106257 117.43279351 287.53262329 121.18266296 C287.53443263 127.47385097 287.5320711 133.76502717 287.52728271 140.05621338 C287.52184012 147.28964451 287.52360776 154.52304744 287.52910912 161.75647789 C287.53367284 168.01176268 287.53427502 174.26703906 287.53167045 180.52232498 C287.53012581 184.23878594 287.52986344 187.95523373 287.53320694 191.6716938 C287.53667928 195.81957751 287.53184303 199.96741394 287.52630615 204.11529541 C287.52833038 205.31728073 287.53035461 206.51926605 287.53244019 207.75767517 C287.52395106 211.22048139 287.47544658 214.67852698 287.39691162 218.14044189 C287.36701015 219.45861341 287.33710869 220.77678493 287.30630112 222.13490105 C287.25302306 223.47070925 287.1972564 224.80642086 287.13882446 226.14201355 C287.07096646 227.93604819 287.07096646 227.93604819 287.00173759 229.76632595 C286.14249587 234.55973979 283.96896837 237.75893748 280.33441162 240.95294189 C277.13343998 242.91482774 274.48905741 243.26965656 270.82215881 243.29866028 C269.41501617 243.31334351 269.41501617 243.31334351 267.97944641 243.32832336 C266.95230026 243.33407883 265.92515411 243.33983429 264.86688232 243.34576416 C263.24225571 243.36061356 263.24225571 243.36061356 261.58480835 243.37576294 C257.99745892 243.40740245 254.41009623 243.43214515 250.82269287 243.45684814 C248.33832959 243.47741555 245.85396982 243.49841196 243.36961365 243.51982117 C237.49422838 243.56941457 231.61882217 243.6146742 225.74338645 243.65784353 C218.39804016 243.71207772 211.05275332 243.77302401 203.7074585 243.83380127 C190.60398253 243.94140976 177.50046719 244.04303533 164.39691162 244.14044189 C164.39822083 244.70244293 164.39953003 245.26444397 164.40087891 245.84347534 C164.40613396 248.43465096 164.40934636 251.02582545 164.41253662 253.61700439 C164.41463135 254.5007373 164.41672607 255.38447021 164.41888428 256.29498291 C164.43940513 278.59088736 164.43940513 278.59088736 159.39691162 285.14044189 C155.46119155 288.70718821 151.86765774 289.26205173 146.67308044 289.28088379 C145.7268985 289.28659393 144.78071655 289.29230408 143.80586243 289.29818726 C142.77460739 289.29930511 141.74335236 289.30042297 140.68084717 289.30157471 C139.58935364 289.30653961 138.49786011 289.31150452 137.37329102 289.31661987 C133.7600644 289.33123273 130.14688169 289.33804194 126.53363037 289.34356689 C124.02262877 289.3493189 121.51162718 289.35507663 119.00062561 289.36083984 C114.40707175 289.37000445 109.81353046 289.37630588 105.2199685 289.3793366 C98.47003997 289.38381517 91.72031415 289.40135728 84.97044724 289.43033719 C79.114246 289.45460293 73.25811212 289.46228305 67.40186501 289.46401215 C64.91519886 289.46703791 62.42853356 289.47506382 59.94190025 289.48819733 C56.46149751 289.50526793 52.98158739 289.50337482 49.50115967 289.49688721 C48.47597733 289.50610199 47.45079498 289.51531677 46.39454651 289.52481079 C40.61577096 289.49109878 36.48349517 288.96035233 31.39691162 286.14044189 C21.57993832 275.54844439 25.09302611 253.8335086 24.83441162 240.20294189 C24.79110869 238.05514902 24.74749116 235.90736247 24.70355225 233.75958252 C24.59771648 228.55326796 24.4961215 223.34688676 24.39691162 218.14044189 C23.69195557 218.12062256 22.98699951 218.10080322 22.26068115 218.0803833 C19.01409951 217.9841292 15.76807512 217.87486314 12.52191162 217.76544189 C11.41331787 217.73450439 10.30472412 217.70356689 9.16253662 217.67169189 C-8.11016935 217.06206698 -8.11016935 217.06206698 -13.60308838 212.82794189 C-17.36893342 207.76758762 -17.89554586 203.40139918 -17.86378479 197.21455383 C-17.86761034 196.42230595 -17.87143588 195.63005806 -17.87537736 194.81380266 C-17.88568632 192.16227939 -17.88171923 189.51097352 -17.87774658 186.85943604 C-17.88209421 184.95712585 -17.88727752 183.05481742 -17.89323425 181.1525116 C-17.9066297 175.98726057 -17.90720234 170.82208269 -17.90467095 165.65681767 C-17.90360167 161.34508183 -17.9084835 157.0333608 -17.91327637 152.72162813 C-17.92437334 142.55010491 -17.92480782 132.37861863 -17.91876221 122.20709229 C-17.91272056 111.71256719 -17.92503789 101.21817611 -17.94633228 90.72367388 C-17.96394227 81.71377872 -17.9699506 72.70392623 -17.96669453 63.69401449 C-17.96488066 58.31264092 -17.96752834 52.93136295 -17.98140907 47.55000496 C-17.99397304 42.48976623 -17.99205682 37.42973659 -17.97899818 32.36950111 C-17.97662978 30.51273783 -17.97937651 28.6559599 -17.98762131 26.79921341 C-17.99806814 24.26367026 -17.99000491 21.7288314 -17.97731018 19.1933136 C-17.98468447 18.45935728 -17.99205875 17.72540095 -17.9996565 16.96920353 C-17.95043446 12.29297365 -17.06494463 9.11310208 -14.60308838 5.14044189 C-9.61841084 0.64207436 -6.53933014 -0.00756689 0 0 Z M34.39691162 53.14044189 C34.39691162 84.16044189 34.39691162 115.18044189 34.39691162 147.14044189 C38.58986873 149.23692045 40.31144685 149.37123678 44.87786865 149.30743408 C46.19248077 149.29371765 47.5070929 149.28000122 48.86154175 149.26586914 C50.29261181 149.24019702 51.72367256 149.21400044 53.15472412 149.18731689 C54.62394351 149.16621339 56.093172 149.1457348 57.56240845 149.12585449 C60.63743601 149.08188823 63.71222802 149.03053242 66.78704834 148.97393799 C70.73254873 148.90188848 74.67805118 148.8479578 78.62390327 148.79948044 C81.65569942 148.76029924 84.68728847 148.711721 87.71889877 148.66025543 C89.17414868 148.63666163 90.62944873 148.615978 92.08478165 148.59822845 C94.11491443 148.57203009 96.14485272 148.53187222 98.17474365 148.49102783 C99.33072052 148.47167175 100.48669739 148.45231567 101.67770386 148.43237305 C104.54331949 148.41242481 104.54331949 148.41242481 106.39691162 146.14044189 C106.608869 143.70950768 106.6978475 141.38942429 106.69989014 138.95611572 C106.71254913 137.84600632 106.71254913 137.84600632 106.72546387 136.71347046 C106.75132525 134.2581317 106.76340646 131.80291358 106.77581787 129.34747314 C106.79199198 127.64073229 106.80917189 125.9340007 106.82731628 124.22727966 C106.87309068 119.72384953 106.90783551 115.22040685 106.93951416 110.71685791 C106.99128091 103.52604386 107.0568335 96.33536801 107.12772942 89.14472008 C107.1504579 86.63718722 107.16680317 84.12967133 107.18244934 81.62208557 C107.19586936 80.07196882 107.20948529 78.52185376 107.22332764 76.97174072 C107.22594101 76.28004288 107.22855438 75.58834503 107.23124695 74.87568665 C107.26593183 71.58431882 107.49398122 68.47559716 107.97026062 65.21348572 C108.11105545 64.19938126 108.25185028 63.18527679 108.39691162 62.14044189 C106.14823224 59.89176252 100.19398065 60.73553227 97.00628662 60.62286377 C90.86926056 60.33953417 85.36256314 59.92739782 80.64691162 55.64044189 C79.90441162 54.81544189 79.16191162 53.99044189 78.39691162 53.14044189 C74.71459937 50.68556706 71.91732195 50.85124009 67.65863037 50.87481689 C66.90024368 50.87290344 66.14185699 50.87098999 65.36048889 50.86901855 C63.75584583 50.8676581 62.15119171 50.87134481 60.54656982 50.87969971 C58.10385015 50.89035709 55.66187337 50.87982306 53.21917725 50.86700439 C51.65732668 50.86832688 50.09547657 50.87089113 48.53363037 50.87481689 C47.80842697 50.87076843 47.08322357 50.86671997 46.33604431 50.86254883 C41.70762375 50.90480117 38.97578095 51.61415212 34.39691162 53.14044189 Z M198.39691162 102.14044189 C198.2910006 105.05164738 198.25013502 107.93925695 198.25164795 110.85113525 C198.24828934 111.76490433 198.24493073 112.6786734 198.24147034 113.62013245 C198.23192977 116.6568638 198.23001568 119.69354021 198.22894287 122.73028564 C198.22573249 124.83156864 198.22236859 126.9328514 198.21885681 129.03413391 C198.21285779 133.44514484 198.21101771 137.85613615 198.21160889 142.26715088 C198.21171056 147.93140457 198.19805618 153.59553305 198.18083668 159.25975704 C198.16974186 163.60134972 198.1676889 167.94291188 198.16821861 172.28451729 C198.16703477 174.37339268 198.16259053 176.46226877 198.15488625 178.55113029 C198.14513686 181.46762851 198.14794429 184.38385178 198.1539917 187.300354 C198.14837219 188.17056183 198.14275269 189.04076965 198.13696289 189.93734741 C197.9510424 194.51653175 197.9510424 194.51653175 200.39691162 198.14044189 C203.38653266 198.34050492 206.28153512 198.42017112 209.27191162 198.40606689 C210.59231445 198.40893707 210.59231445 198.40893707 211.93939209 198.41186523 C213.80218796 198.41322741 215.66499332 198.40952871 217.527771 198.40118408 C220.38540898 198.39048496 223.24241828 198.40107821 226.10003662 198.41387939 C227.90732968 198.41255781 229.71462235 198.40999542 231.52191162 198.40606689 C232.80944336 198.41213959 232.80944336 198.41213959 234.12298584 198.41833496 C238.73916221 198.59537564 238.73916221 198.59537564 242.39691162 196.14044189 C242.59573564 193.19864922 242.66956616 190.3509684 242.65570068 187.40802002 C242.65920532 186.50385849 242.66270996 185.59969696 242.6663208 184.6681366 C242.67514784 181.66924438 242.66928553 178.67058666 242.66253662 175.67169189 C242.66388299 173.59425816 242.66582329 171.51682474 242.66833496 169.43939209 C242.67128754 165.08141079 242.66698426 160.72351136 242.65765381 156.36553955 C242.64625923 150.76968112 242.65281798 145.17401453 242.66479874 139.57816315 C242.67201371 135.28717596 242.66973108 130.99623451 242.66454315 126.70524597 C242.66320565 124.64149452 242.66485787 122.57773897 242.66950226 120.51399231 C242.67456152 117.63350366 242.66686571 114.75332894 242.65570068 111.87286377 C242.65974915 111.01357773 242.66379761 110.15429169 242.66796875 109.26896667 C242.83718005 104.72888794 242.83718005 104.72888794 240.39691162 101.14044189 C237.32339227 100.95260627 234.34148684 100.88497267 231.26800537 100.90997314 C229.91075096 100.91066048 229.91075096 100.91066048 228.52607727 100.91136169 C226.61199636 100.91438519 224.69791793 100.9222744 222.78387451 100.93463135 C219.84294997 100.95288889 216.90234004 100.95514106 213.96136475 100.95489502 C212.10524221 100.95981003 210.24912183 100.96563828 208.39300537 100.97247314 C207.50761581 100.97358597 206.62222626 100.97469879 205.71000671 100.97584534 C201.73589669 100.60941146 201.73589669 100.60941146 198.39691162 102.14044189 Z M67.39691162 218.14044189 C67.29702904 220.10454801 67.26610327 222.07223623 67.26409912 224.03887939 C67.26281006 225.24028564 67.261521 226.44169189 67.26019287 227.67950439 C67.26406006 228.94536377 67.26792725 230.21122314 67.27191162 231.51544189 C67.26804443 232.77356689 67.26417725 234.03169189 67.26019287 235.32794189 C67.26148193 236.53192627 67.262771 237.73591064 67.26409912 238.97637939 C67.26522705 240.08545654 67.26635498 241.19453369 67.26751709 242.33721924 C67.27331366 245.22322723 67.27331366 245.22322723 68.39691162 248.14044189 C85.88691162 248.14044189 103.37691162 248.14044189 121.39691162 248.14044189 C121.06691162 246.49044189 120.73691162 244.84044189 120.39691162 243.14044189 C118.43496558 241.85491828 118.43496558 241.85491828 116.02191162 241.14044189 C113.06955025 240.14029342 111.66552258 239.4701008 109.67816162 237.03106689 C108.03403833 233.32176434 107.63990226 229.90226137 107.27191162 225.89044189 C107.20284835 221.12976329 107.20284835 221.12976329 105.39691162 217.14044189 C102.66966884 217.03944702 99.96828639 217.0007366 97.24066162 217.00762939 C96.42319458 217.00667267 95.60572754 217.00571594 94.76348877 217.00473022 C93.03175785 217.00404844 91.30002438 217.0059026 89.56829834 217.0100708 C86.9082468 217.0154191 84.24836412 217.01012577 81.58831787 217.00372314 C79.90993208 217.00438393 78.23154639 217.00566509 76.55316162 217.00762939 C75.75213013 217.00560516 74.95109863 217.00358093 74.12579346 217.00149536 C70.46108861 216.66830522 70.46108861 216.66830522 67.39691162 218.14044189 Z " fill="#A0F9E0" transform="translate(42.60308837890625,31.85955810546875)"/>
<path d="M0 0 C61.38 0 122.76 0 186 0 C186 17.49 186 34.98 186 53 C179.07 53 172.14 53 165 53 C165 42.44 165 31.88 165 21 C157.41 21 149.82 21 142 21 C141.67 20.01 141.34 19.02 141 18 C140.40309357 18.00222061 139.80618713 18.00444122 139.19119263 18.00672913 C132.99481808 18.02880297 126.79845465 18.04391542 120.60205078 18.05493164 C118.28759304 18.05996943 115.9731385 18.06679981 113.65869141 18.07543945 C110.3375571 18.08752924 107.01646475 18.09323375 103.6953125 18.09765625 C102.13588425 18.10539818 102.13588425 18.10539818 100.54495239 18.11329651 C99.58410736 18.11337204 98.62326233 18.11344757 97.63330078 18.11352539 C96.78502716 18.115746 95.93675354 18.11796661 95.06277466 18.12025452 C93 18 93 18 91 17 C91 18.32 91 19.64 91 21 C67.9 21 44.8 21 21 21 C21.33 21.66 21.66 22.32 22 23 C22.09361491 24.86255115 22.12191073 26.72851276 22.12025452 28.59341431 C22.12162918 29.78255936 22.12300385 30.97170441 22.12442017 32.19688416 C22.12082489 33.50814774 22.11722961 34.81941132 22.11352539 36.17041016 C22.11324343 37.55985004 22.11340142 38.94929007 22.1139679 40.33872986 C22.11425554 44.11742951 22.10836413 47.89609761 22.10139394 51.67478991 C22.09515492 55.62127556 22.09455617 59.56776189 22.09336853 63.51425171 C22.09025684 70.9905028 22.08204562 78.46673932 22.07201904 85.94298398 C22.05876618 96.04350846 22.05335669 106.1440369 22.04751682 116.24456787 C22.03810563 132.16305617 22.01818563 148.08151371 22 164 C55 164 88 164 122 164 C122 171.59 122 179.18 122 187 C81.74 187 41.48 187 0 187 C0 125.29 0 63.58 0 0 Z " fill="#B4FDE5" transform="translate(40,47)"/>
<path d="M0 0 C6.44454809 0.07205457 12.88917657 0.13603631 19.33380127 0.20080566 C31.86774378 0.32790907 44.40157628 0.46358346 56.93536377 0.60510254 C57.80984586 36.15307136 58.06095579 71.67188526 57.99786377 107.23010254 C57.97723877 123.85385254 57.95661377 140.47760254 57.93536377 157.60510254 C8.10536377 157.60510254 -41.72463623 157.60510254 -93.06463623 157.60510254 C-93.10493926 118.52459369 -93.10493926 118.52459369 -93.11346436 102.20080566 C-93.11940772 90.91084338 -93.12641042 79.62088854 -93.14007568 68.33093262 C-93.15002143 60.1100657 -93.1564894 51.8892048 -93.15872473 43.66833204 C-93.16003202 39.31267931 -93.16311904 34.95704379 -93.17036629 30.60139656 C-93.17712478 26.5065364 -93.17925354 22.41170061 -93.17774391 18.3168354 C-93.17802032 16.80951302 -93.18002645 15.30218987 -93.18384171 13.79487228 C-93.18877622 11.74582755 -93.18703442 9.69676989 -93.18489075 7.64772034 C-93.18581254 6.49824449 -93.18673433 5.34876863 -93.18768406 4.16446018 C-93.06463623 1.60510254 -93.06463623 1.60510254 -92.06463623 0.60510254 C-86.93101202 0.19901441 -81.7670126 0.14523503 -76.61932373 0.01525879 C-75.79771633 -0.00643812 -74.97610893 -0.02813503 -74.12960434 -0.05048943 C-49.42265406 -0.67632421 -24.70952911 -0.28215711 0 0 Z M-79.06463623 14.60510254 C-79.06463623 56.51510254 -79.06463623 98.42510254 -79.06463623 141.60510254 C-77.57963623 141.11010254 -77.57963623 141.11010254 -76.06463623 140.60510254 C-76.39463623 137.96510254 -76.72463623 135.32510254 -77.06463623 132.60510254 C-73.10463623 132.60510254 -69.14463623 132.60510254 -65.06463623 132.60510254 C-65.06463623 135.24510254 -65.06463623 137.88510254 -65.06463623 140.60510254 C-68.36463623 140.60510254 -71.66463623 140.60510254 -75.06463623 140.60510254 C-75.06463623 140.93510254 -75.06463623 141.26510254 -75.06463623 141.60510254 C-16.65463623 142.10010254 -16.65463623 142.10010254 42.93536377 142.60510254 C42.93536377 100.36510254 42.93536377 58.12510254 42.93536377 14.60510254 C2.67536377 14.60510254 -37.58463623 14.60510254 -79.06463623 14.60510254 Z " fill="#BEFEE6" transform="translate(257.06463623046875,102.3948974609375)"/>
<path d="M0 0 C22.11 0 44.22 0 67 0 C67 3.3 67 6.6 67 10 C83.83 10 100.66 10 118 10 C118 6.7 118 3.4 118 0 C124.6 0 131.2 0 138 0 C138 9.9 138 19.8 138 30 C124.8 30 111.6 30 98 30 C98 60.69 98 91.38 98 123 C71.27 123 44.54 123 17 123 C17 128.28 17 133.56 17 139 C11.39 139 5.78 139 0 139 C0 93.13 0 47.26 0 0 Z M13 15 C13 46.02 13 77.04 13 109 C17.19295711 111.09647855 18.91453522 111.23079488 23.48095703 111.16699219 C24.79556915 111.15327576 26.11018127 111.13955933 27.46463013 111.12542725 C28.89570019 111.09975513 30.32676093 111.07355855 31.7578125 111.046875 C33.22703189 111.0257715 34.69626038 111.0052929 36.16549683 110.9854126 C39.24052439 110.94144634 42.3153164 110.89009053 45.39013672 110.83349609 C49.33563711 110.76144659 53.28113956 110.7075159 57.22699165 110.65903854 C60.2587878 110.61985734 63.29037685 110.57127911 66.32198715 110.51981354 C67.77723706 110.49621974 69.2325371 110.47553611 70.68787003 110.45778656 C72.71800281 110.4315882 74.7479411 110.39143032 76.77783203 110.35058594 C77.9338089 110.33122986 79.08978577 110.31187378 80.28079224 110.29193115 C83.14640787 110.27198292 83.14640787 110.27198292 85 108 C85.21195738 105.56906579 85.30093588 103.2489824 85.30297852 100.81567383 C85.31563751 99.70556442 85.31563751 99.70556442 85.32855225 98.57302856 C85.35441363 96.1176898 85.36649484 93.66247169 85.37890625 91.20703125 C85.39508036 89.5002904 85.41226027 87.79355881 85.43040466 86.08683777 C85.47617906 81.58340763 85.51092389 77.07996496 85.54260254 72.57641602 C85.59436929 65.38560196 85.65992188 58.19492612 85.73081779 51.00427818 C85.75354628 48.49674533 85.76989155 45.98922943 85.78553772 43.48164368 C85.79895774 41.93152693 85.81257367 40.38141186 85.82641602 38.83129883 C85.82902939 38.13960098 85.83164276 37.44790314 85.83433533 36.73524475 C85.86902021 33.44387692 86.0970696 30.33515527 86.573349 27.07304382 C86.71414383 26.05893936 86.85493866 25.0448349 87 24 C84.75132062 21.75132062 78.79706903 22.59509037 75.609375 22.48242188 C69.47234894 22.19909227 63.96565152 21.78695592 59.25 17.5 C58.5075 16.675 57.765 15.85 57 15 C53.31768775 12.54512516 50.52041033 12.7107982 46.26171875 12.734375 C45.50333206 12.73246155 44.74494537 12.7305481 43.96357727 12.72857666 C42.35893421 12.72721621 40.75428009 12.73090292 39.1496582 12.73925781 C36.70693853 12.74991519 34.26496175 12.73938117 31.82226562 12.7265625 C30.26041506 12.72788499 28.69856495 12.73044923 27.13671875 12.734375 C26.41151535 12.73032654 25.68631195 12.72627808 24.93913269 12.72210693 C20.31071213 12.76435928 17.57886932 13.47371023 13 15 Z " fill="#A1FDE4" transform="translate(64,70)"/>
<path d="M0 0 C22.77 0 45.54 0 69 0 C69 40.59 69 81.18 69 123 C34.68 123 0.36 123 -35 123 C-35 120.69 -35 118.38 -35 116 C-23.45 116 -11.9 116 0 116 C0 77.72 0 39.44 0 0 Z M12 14 C11.89408898 16.91120549 11.8532234 19.79881505 11.85473633 22.71069336 C11.85137772 23.62446243 11.8480191 24.53823151 11.84455872 25.47969055 C11.83501815 28.51642191 11.83310406 31.55309832 11.83203125 34.58984375 C11.82882087 36.69112674 11.82545697 38.79240951 11.82194519 40.89369202 C11.81594617 45.30470295 11.81410609 49.71569426 11.81469727 54.12670898 C11.81479894 59.79096267 11.80114456 65.45509116 11.78392506 71.11931515 C11.77283024 75.46090782 11.77077728 79.80246999 11.77130699 84.14407539 C11.77012315 86.23295079 11.76567891 88.32182688 11.75797462 90.4106884 C11.74822523 93.32718661 11.75103267 96.24340988 11.75708008 99.15991211 C11.75146057 100.03011993 11.74584106 100.90032776 11.74005127 101.79690552 C11.55413078 106.37608986 11.55413078 106.37608986 14 110 C16.98962103 110.20006302 19.8846235 110.27972923 22.875 110.265625 C24.19540283 110.26849518 24.19540283 110.26849518 25.54248047 110.27142334 C27.40527634 110.27278552 29.26808169 110.26908682 31.13085938 110.26074219 C33.98849736 110.25004307 36.84550666 110.26063632 39.703125 110.2734375 C41.51041806 110.27211591 43.31771073 110.26955353 45.125 110.265625 C46.41253174 110.27169769 46.41253174 110.27169769 47.72607422 110.27789307 C52.34225058 110.45493375 52.34225058 110.45493375 56 108 C56.19882402 105.05820732 56.27265454 102.21052651 56.25878906 99.26757812 C56.2622937 98.3634166 56.26579834 97.45925507 56.26940918 96.5276947 C56.27823622 93.52880248 56.27237391 90.53014476 56.265625 87.53125 C56.26697137 85.45381627 56.26891167 83.37638284 56.27142334 81.2989502 C56.27437592 76.94096889 56.27007264 72.58306946 56.26074219 68.22509766 C56.24934761 62.62923923 56.25590636 57.03357263 56.26788712 51.43772125 C56.27510208 47.14673406 56.27281946 42.85579262 56.26763153 38.56480408 C56.26629403 36.50105263 56.26794625 34.43729707 56.27259064 32.37355042 C56.2776499 29.49306176 56.26995409 26.61288705 56.25878906 23.73242188 C56.26283752 22.87313583 56.26688599 22.01384979 56.27105713 21.12852478 C56.44026843 16.58844605 56.44026843 16.58844605 54 13 C50.92648065 12.81216438 47.94457522 12.74453078 44.87109375 12.76953125 C43.51383934 12.77021858 43.51383934 12.77021858 42.12916565 12.7709198 C40.21508473 12.7739433 38.30100631 12.7818325 36.38696289 12.79418945 C33.44603835 12.81244699 30.50542842 12.81469917 27.56445312 12.81445312 C25.70833059 12.81936814 23.85221021 12.82519638 21.99609375 12.83203125 C21.11070419 12.83314407 20.22531464 12.8342569 19.31309509 12.83540344 C15.33898506 12.46896956 15.33898506 12.46896956 12 14 Z " fill="#A1FDE3" transform="translate(229,120)"/>
<path d="M0 0 C6.6 0 13.2 0 20 0 C20 37.62 20 75.24 20 114 C4.82 114 -10.36 114 -26 114 C-26 106.41 -26 98.82 -26 91 C-17.75 91 -9.5 91 -1 91 C-1.00523682 88.27886963 -1.01047363 85.55773926 -1.01586914 82.75415039 C-1.03240401 73.78549875 -1.04347081 64.81684645 -1.05181217 55.84818363 C-1.05704128 50.40797688 -1.06413943 44.96778569 -1.07543945 39.52758789 C-1.08626735 34.28214298 -1.09227662 29.03671308 -1.09487724 23.79125786 C-1.09673167 21.78529054 -1.10035262 19.77932408 -1.10573006 17.77336311 C-1.11293919 14.97397176 -1.113991 12.17464321 -1.11352539 9.37524414 C-1.11712067 8.53727295 -1.12071594 7.69930176 -1.12442017 6.8359375 C-1.11405216 1.11405216 -1.11405216 1.11405216 0 0 Z " fill="#C6FEE7" transform="translate(206,120)"/>
<path d="M0 0 C21.45 0 42.9 0 65 0 C65 8.58 65 17.16 65 26 C70.28 26 75.56 26 81 26 C81 36.23 81 46.46 81 57 C54.27 57 27.54 57 0 57 C0 38.19 0 19.38 0 0 Z M13 14 C12.90011742 15.96410611 12.86919165 17.93179434 12.8671875 19.8984375 C12.86589844 21.09984375 12.86460938 22.30125 12.86328125 23.5390625 C12.86714844 24.80492187 12.87101562 26.07078125 12.875 27.375 C12.87113281 28.633125 12.86726563 29.89125 12.86328125 31.1875 C12.86457031 32.39148438 12.86585937 33.59546875 12.8671875 34.8359375 C12.86831543 35.94501465 12.86944336 37.0540918 12.87060547 38.19677734 C12.87640204 41.08278534 12.87640204 41.08278534 14 44 C31.49 44 48.98 44 67 44 C66.67 42.35 66.34 40.7 66 39 C64.03805396 37.71447638 64.03805396 37.71447638 61.625 37 C58.67263862 35.99985152 57.26861096 35.32965891 55.28125 32.890625 C53.63712671 29.18132245 53.24299064 25.76181947 52.875 21.75 C52.80593673 16.9893214 52.80593673 16.9893214 51 13 C48.27275721 12.89900512 45.57137477 12.86029471 42.84375 12.8671875 C42.02628296 12.86623077 41.20881592 12.86527405 40.36657715 12.86428833 C38.63484622 12.86360655 36.90311276 12.86546071 35.17138672 12.86962891 C32.51133518 12.87497721 29.8514525 12.86968388 27.19140625 12.86328125 C25.51302046 12.86394203 23.83463477 12.8652232 22.15625 12.8671875 C21.35521851 12.86516327 20.55418701 12.86313904 19.72888184 12.86105347 C16.06417699 12.52786332 16.06417699 12.52786332 13 14 Z " fill="#A2FDE3" transform="translate(97,236)"/>
<path d="M0 0 C3.96 0 7.92 0 12 0 C12 20.13 12 40.26 12 61 C40.05 61 68.1 61 97 61 C97 49.78 97 38.56 97 27 C100.96 27 104.92 27 109 27 C109 41.52 109 56.04 109 71 C73.03 71 37.06 71 0 71 C0 47.57 0 24.14 0 0 Z " fill="#CFFEE9" transform="translate(83,235)"/>
<path d="M0 0 C7.26 0 14.52 0 22 0 C22.33 29.37 22.66 58.74 23 89 C20.03 89 17.06 89 14 89 C14 83.72 14 78.44 14 73 C9.38 73 4.76 73 0 73 C0 48.91 0 24.82 0 0 Z " fill="#A1FDE3" transform="translate(180,120)"/>
<path d="M0 0 C16.83 0 33.66 0 51 0 C51 1.32 51 2.64 51 4 C58.59 4 66.18 4 74 4 C74 14.56 74 25.12 74 36 C80.93 36 87.86 36 95 36 C95 36.33 95 36.66 95 37 C93.84242188 37.06058594 92.68484375 37.12117188 91.4921875 37.18359375 C89.95311543 37.26805502 88.41405345 37.35270018 86.875 37.4375 C86.11445313 37.47681641 85.35390625 37.51613281 84.5703125 37.55664062 C83.82265625 37.59853516 83.075 37.64042969 82.3046875 37.68359375 C81.2835083 37.73858032 81.2835083 37.73858032 80.24169922 37.79467773 C77.91111892 37.97393285 77.91111892 37.97393285 75.28710938 38.5 C71.21289907 39.11972539 67.21673738 39.23046305 63.1015625 39.31640625 C62.26660248 39.33718735 61.43164246 39.35796844 60.57138062 39.37937927 C57.9226651 39.44439469 55.27385641 39.50353491 52.625 39.5625 C50.82160522 39.60573096 49.01821962 39.64934666 47.21484375 39.69335938 C42.80998961 39.80002639 38.4050424 39.90142695 34 40 C33.98018066 41.11036621 33.96036133 42.22073242 33.93994141 43.36474609 C33.86398919 47.47614602 33.7752564 51.58718718 33.68261719 55.69824219 C33.64428435 57.47909473 33.60943911 59.26002584 33.578125 61.04101562 C33.53256729 63.59794234 33.47455893 66.1543261 33.4140625 68.7109375 C33.40251129 69.50994476 33.39096008 70.30895203 33.37905884 71.13217163 C33.22774341 76.77225659 33.22774341 76.77225659 31 79 C31 64.81 31 50.62 31 36 C44.2 36 57.4 36 71 36 C71 26.1 71 16.2 71 6 C64.4 6 57.8 6 51 6 C51 9.3 51 12.6 51 16 C34.17 16 17.34 16 0 16 C0 12.7 0 9.4 0 6 C-22.11 6 -44.22 6 -67 6 C-67 37.02 -67 68.04 -67 100 C-67.33 100 -67.66 100 -68 100 C-69.16580479 95.35171536 -69.17243172 90.83883564 -69.20532227 86.07885742 C-69.21522186 85.19055237 -69.22512146 84.30224731 -69.23532104 83.38702393 C-69.26683085 80.45986569 -69.29165181 77.53269125 -69.31640625 74.60546875 C-69.33698486 72.57236822 -69.35798157 70.53927188 -69.37937927 68.50617981 C-69.43450622 63.16166585 -69.4839568 57.81711388 -69.53222656 52.47253418 C-69.59135487 46.05639753 -69.65753117 39.64033018 -69.72252655 33.22425079 C-69.82041806 23.48287627 -69.90935489 13.74145679 -70 4 C-46.9 4 -23.8 4 0 4 C0 2.68 0 1.36 0 0 Z " fill="#97ECD4" transform="translate(131,64)"/>
<path d="M0 0 C26.07 0 52.14 0 79 0 C79 3.63 79 7.26 79 11 C56.89 11 34.78 11 12 11 C12 11.99 12 12.98 12 14 C8.04 14 4.08 14 0 14 C0 9.38 0 4.76 0 0 Z " fill="#CFFEE9" transform="translate(83,195)"/>
<path d="M0 0 C3.33422489 -0.01284994 6.66844329 -0.02052862 10.00268555 -0.02734375 C11.40508106 -0.03284241 11.40508106 -0.03284241 12.8358078 -0.03845215 C20.53942483 -0.05023476 28.13521842 0.34131149 35.8125 1 C37.00552734 1.09539062 38.19855469 1.19078125 39.42773438 1.2890625 C42.28585148 1.51863014 45.14312833 1.75550615 48 2 C48 2.33 48 2.66 48 3 C38.1 3.495 38.1 3.495 28 4 C27.67 33.7 27.34 63.4 27 94 C26.67 94 26.34 94 26 94 C25.67 91.36 25.34 88.72 25 86 C24.67 86 24.34 86 24 86 C24 58.61 24 31.22 24 3 C16.74 3 9.48 3 2 3 C2 27.09 2 51.18 2 76 C6.62 76 11.24 76 16 76 C16.25 88.625 16.25 88.625 14 92 C11.25 92.3984375 11.25 92.3984375 8 92.375 C6.39125 92.38660156 6.39125 92.38660156 4.75 92.3984375 C3.8425 92.26695312 2.935 92.13546875 2 92 C-0.57575061 88.13637408 -0.26624186 84.96658821 -0.22705078 80.48950195 C-0.22734283 79.62099609 -0.22763489 78.75249023 -0.22793579 77.85766602 C-0.22654147 74.98443644 -0.21097544 72.11146558 -0.1953125 69.23828125 C-0.19158273 67.24716839 -0.18873559 65.2560537 -0.18673706 63.26493835 C-0.17909775 58.02223653 -0.15944666 52.77964538 -0.1373291 47.5369873 C-0.11687712 42.18808489 -0.10773673 36.83916461 -0.09765625 31.49023438 C-0.07620108 20.99344094 -0.0420615 10.49672967 0 0 Z " fill="#A0EDD5" transform="translate(178,117)"/>
<path d="M0 0 C20.79 0 41.58 0 63 0 C62.67 12.87 62.34 25.74 62 39 C41.54 39 21.08 39 0 39 C0 26.13 0 13.26 0 0 Z M2 3 C2 13.89 2 24.78 2 36 C21.14 36 40.28 36 60 36 C60 25.11 60 14.22 60 3 C40.86 3 21.72 3 2 3 Z " fill="#98EDD5" transform="translate(242,55)"/>
<path d="M0 0 C15.18 0 30.36 0 46 0 C46 3.3 46 6.6 46 10 C30.82 10 15.64 10 0 10 C0 6.7 0 3.4 0 0 Z " fill="#A1FEE4" transform="translate(134,67)"/>
<path d="M0 0 C10.56 0 21.12 0 32 0 C32 3.3 32 6.6 32 10 C21.44 9.67 10.88 9.34 0 9 C0 6.03 0 3.06 0 0 Z " fill="#95EAD2" transform="translate(257,70)"/>
<path d="M0 0 C3.96 0 7.92 0 12 0 C12 2.64 12 5.28 12 8 C64.47 8.495 64.47 8.495 118 9 C118 9.33 118 9.66 118 10 C78.4 10 38.8 10 -2 10 C-1.34 9.34 -0.68 8.68 0 8 C0.24212873 6.01871492 0.24212873 6.01871492 0.125 3.875 C0.063125 1.956875 0.063125 1.956875 0 0 Z " fill="#AEECD7" transform="translate(180,235)"/>
<path d="M0 0 C3.96 0 7.92 0 12 0 C12 4.62 12 9.24 12 14 C8.04 14 4.08 14 0 14 C0 9.38 0 4.76 0 0 Z " fill="#CDFDE9" transform="translate(180,195)"/>
<path d="M0 0 C0.33 0.66 0.66 1.32 1 2 C22.78 2 44.56 2 67 2 C67 2.99 67 3.98 67 5 C40.93 5 14.86 5 -12 5 C-12 4.34 -12 3.68 -12 3 C-8.04 3 -4.08 3 0 3 C0 2.01 0 1.02 0 0 Z " fill="#ABEFDA" transform="translate(95,206)"/>
<path d="M0 0 C9.24 0 18.48 0 28 0 C28 1.65 28 3.3 28 5 C18.76 5 9.52 5 0 5 C0 3.35 0 1.7 0 0 Z " fill="#A3FDE4" transform="translate(259,72)"/>
<path d="M0 0 C3.96 0 7.92 0 12 0 C12 2.64 12 5.28 12 8 C8.04 8 4.08 8 0 8 C0 5.36 0 2.72 0 0 Z " fill="#C9FDE7" transform="translate(180,235)"/>
<path d="M0 0 C0.33 0 0.66 0 1 0 C1.33 4.29 1.66 8.58 2 13 C4.97 13 7.94 13 11 13 C10.67 13.66 10.34 14.32 10 15 C2.74 15 -4.52 15 -12 15 C-12 14.34 -12 13.68 -12 13 C-8.04 13 -4.08 13 0 13 C0 8.71 0 4.42 0 0 Z " fill="#A7E7D3" transform="translate(192,196)"/>
</svg>
